<svg width="25" height="25" viewBox="0 0 25 25" fill="none" xmlns="http://www.w3.org/2000/svg">
<mask id="mask0_389_883" style="mask-type:alpha" maskUnits="userSpaceOnUse" x="0" y="0" width="25" height="25">
<rect x="0.49585" y="0.476562" width="24" height="24" fill="#D9D9D9"/>
</mask>
<g mask="url(#mask0_389_883)">
<path d="M12.4958 22.4766C11.1125 22.4766 9.81252 22.2141 8.59585 21.6891C7.37918 21.1641 6.32085 20.4516 5.42085 19.5516C4.52085 18.6516 3.80835 17.5932 3.28335 16.3766C2.75835 15.1599 2.49585 13.8599 2.49585 12.4766C2.49585 11.0932 2.75835 9.79323 3.28335 8.57656C3.80835 7.3599 4.52085 6.30156 5.42085 5.40156C6.32085 4.50156 7.37918 3.78906 8.59585 3.26406C9.81252 2.73906 11.1125 2.47656 12.4958 2.47656C13.8792 2.47656 15.1792 2.73906 16.3959 3.26406C17.6125 3.78906 18.6709 4.50156 19.5709 5.40156C20.4708 6.30156 21.1833 7.3599 21.7083 8.57656C22.2333 9.79323 22.4958 11.0932 22.4958 12.4766C22.4958 13.8599 22.2333 15.1599 21.7083 16.3766C21.1833 17.5932 20.4708 18.6516 19.5709 19.5516C18.6709 20.4516 17.6125 21.1641 16.3959 21.6891C15.1792 22.2141 13.8792 22.4766 12.4958 22.4766ZM12.4958 20.4766C14.7292 20.4766 16.6208 19.7016 18.1708 18.1516C19.7208 16.6016 20.4958 14.7099 20.4958 12.4766C20.4958 10.2432 19.7208 8.35156 18.1708 6.80156C16.6208 5.25156 14.7292 4.47656 12.4958 4.47656C10.2625 4.47656 8.37085 5.25156 6.82085 6.80156C5.27085 8.35156 4.49585 10.2432 4.49585 12.4766C4.49585 14.7099 5.27085 16.6016 6.82085 18.1516C8.37085 19.7016 10.2625 20.4766 12.4958 20.4766Z" fill="#45484D"/>
</g>
</svg>
