<svg width="25" height="25" viewBox="0 0 25 25" fill="none" xmlns="http://www.w3.org/2000/svg">
<mask id="mask0_397_877" style="mask-type:alpha" maskUnits="userSpaceOnUse" x="0" y="0" width="25" height="25">
<rect x="0.0581055" y="0.39502" width="24" height="24" fill="#D9D9D9"/>
</mask>
<g mask="url(#mask0_397_877)">
<path d="M11.0581 21.345C9.04144 21.095 7.37061 20.2159 6.04561 18.7075C4.72061 17.1992 4.05811 15.4284 4.05811 13.395C4.05811 12.295 4.27477 11.2409 4.70811 10.2325C5.14144 9.22419 5.75811 8.34502 6.55811 7.59502L7.98311 9.02002C7.34977 9.58669 6.87061 10.245 6.54561 10.995C6.22061 11.745 6.05811 12.545 6.05811 13.395C6.05811 14.8617 6.52477 16.1575 7.45811 17.2825C8.39144 18.4075 9.59144 19.095 11.0581 19.345V21.345ZM13.0581 21.345V19.345C14.5081 19.0784 15.7039 18.3867 16.6456 17.27C17.5873 16.1534 18.0581 14.8617 18.0581 13.395C18.0581 11.7284 17.4748 10.3117 16.3081 9.14502C15.1414 7.97835 13.7248 7.39502 12.0581 7.39502H11.9831L13.0831 8.49502L11.6831 9.89502L8.18311 6.39502L11.6831 2.89502L13.0831 4.29502L11.9831 5.39502H12.0581C14.2914 5.39502 16.1831 6.17002 17.7331 7.72002C19.2831 9.27002 20.0581 11.1617 20.0581 13.395C20.0581 15.4117 19.3956 17.1742 18.0706 18.6825C16.7456 20.1909 15.0748 21.0784 13.0581 21.345Z" fill="#45484D"/>
</g>
</svg>
